<svg width="120" height="70" viewBox="0 0 120 70" fill="none" xmlns="http://www.w3.org/2000/svg">
<g clip-path="url(#clip0_84_890)">
<path fill-rule="evenodd" clip-rule="evenodd" d="M69.542 18.6554L69.4381 18.9967H56.2502C52.9129 13.4225 42.2866 16.662 33.2336 21.39H33.2149C32.3911 20.9469 31.5083 20.4898 30.5774 20.0374C27.9359 18.7191 25.2157 17.5635 22.4319 16.5771C21.6093 16.2924 20.7473 16.1362 19.8766 16.1139C18.7078 16.0651 17.5508 16.3622 16.5517 16.9678C15.5067 17.6345 14.7272 18.6422 14.347 19.8182C14.0861 20.6083 13.949 21.4338 13.9405 22.2655C13.8583 25.9343 13.8303 28.8789 13.8769 31.422C13.925 33.9914 14.046 36.147 14.2617 38.216C14.3013 38.6019 14.376 38.9833 14.4851 39.3556C14.7018 40.102 15.0692 40.7966 15.5649 41.3969C16.0605 41.9972 16.674 42.4905 17.3678 42.8468C18.5951 43.4856 19.9831 43.7539 21.3614 43.6188C21.7127 43.5829 22.0601 43.5158 22.3993 43.4181L22.6321 43.3486C26.6707 48.3345 31.8077 54.0477 37.2768 54.3565V54.3935H54.4986C49.2638 63.4666 43.4192 70.2931 37.9362 69.9904C25.4217 69.2971 10.8452 49.735 2.21263 38.4693C-15.757 15.0222 82.0519 -23.1231 69.542 18.6554Z" fill="url(#paint0_linear_84_890)"/>
<path fill-rule="evenodd" clip-rule="evenodd" d="M54.0169 22.692H57.3822C57.8135 22.692 58.1393 22.8135 58.3596 23.0564C58.5815 23.3004 58.6699 23.6354 58.6218 24.0647L57.5358 34.6773H54.1395L55.0813 25.5053H54.8377L52.813 31.6817C52.6061 32.4023 52.0998 32.7626 51.294 32.7626H49.3748C49.0228 32.7819 48.6767 32.667 48.4067 32.4414C48.2847 32.3269 48.1882 32.1881 48.1236 32.0341C48.0589 31.8801 48.0274 31.7143 48.0312 31.5474L47.6992 25.5023H47.4199L45.8312 34.6742H42.4287L44.3665 23.9226C44.4097 23.572 44.5622 23.2437 44.8025 22.9838C45.0094 22.7872 45.3233 22.6889 45.7443 22.6889H48.9559C49.3014 22.6706 49.6401 22.7894 49.8977 23.0194C50.0173 23.1372 50.1116 23.2781 50.1748 23.4334C50.2381 23.5887 50.2689 23.7551 50.2654 23.9226L50.4749 28.6815C50.5084 29.2776 50.4964 29.8753 50.4392 30.4696H50.6145C50.7076 30.0311 50.8529 29.4464 51.0505 28.7155L52.5166 23.7837C52.7142 23.0559 53.2143 22.692 54.0169 22.692Z" fill="#2F93B1"/>
<path fill-rule="evenodd" clip-rule="evenodd" d="M69.2532 25.5054H65.0642C64.8373 25.4842 64.6097 25.5385 64.4172 25.6598C64.2707 25.8019 64.1837 25.9938 64.1736 26.1971L64.0184 27.2919H68.3627L68.0524 29.7933H63.6694L63.477 31.183C63.4077 31.6339 63.6228 31.8593 64.1224 31.8593H68.3115L68.2432 34.5383C67.2089 34.6773 65.2436 34.7468 62.3475 34.7468C61.37 34.7468 60.6429 34.4457 60.166 33.8435C59.6892 33.2413 59.5144 32.4538 59.6416 31.481L60.5151 25.2799C60.632 24.4564 60.9578 23.8079 61.4926 23.3344C62.0273 22.8609 62.7312 22.6236 63.6042 22.6226C66.49 22.6226 68.5142 22.7039 69.6768 22.8665L69.2532 25.5054Z" fill="#2F93B1"/>
<path fill-rule="evenodd" clip-rule="evenodd" d="M82.9391 34.5553L82.5559 37.2992H79.8159L79.9199 34.6742H72.5378L71.9281 37.2992H69.1524L69.5186 34.6742L69.8289 32.2037H71.0856C71.9462 30.4537 72.7778 28.1206 73.5804 25.2043C74.0459 23.5253 75.1686 22.6859 76.9487 22.6859H82.9174L81.5862 32.2098H83.2448L82.9469 34.5553H82.9391ZM77.8083 32.2098L78.8214 25.1579H78.2799C78.0191 25.1421 77.7606 25.2157 77.5476 25.3664C77.3728 25.5054 77.2389 25.7601 77.1458 26.1307C76.4942 28.8072 75.8425 30.8335 75.1909 32.2098H77.8083Z" fill="#2F93B1"/>
<path fill-rule="evenodd" clip-rule="evenodd" d="M42.1951 42.1167L42.0555 39.3559C43.3389 39.0346 44.6592 38.8825 45.9824 38.9034C47.9952 38.9034 49.3797 39.3867 50.1358 40.3533C50.8919 41.32 51.1132 42.951 50.7998 45.2466C50.4968 47.4927 49.9062 49.0646 49.028 49.9623C48.1498 50.8599 46.7566 51.3087 44.8482 51.3087C43.0795 51.3087 41.6542 51.1116 40.5723 50.7173L41.0082 47.9904C42.2266 48.0996 43.4498 48.1459 44.6729 48.1294C45.3013 48.1294 45.759 47.9966 46.0429 47.7295C46.3268 47.4624 46.5533 46.9574 46.7163 46.2194H42.1083L42.3875 43.7179H47.0995C47.146 43.0818 47.0855 42.6494 46.9164 42.424C46.7473 42.1985 46.4246 42.0858 45.9483 42.0858C45.0515 42.0838 43.8004 42.0941 42.1951 42.1167Z" fill="#2F93B1"/>
<path fill-rule="evenodd" clip-rule="evenodd" d="M59.2119 44.8266L59.1948 44.9316C59.5243 44.9829 59.8506 45.0525 60.1723 45.1401C60.4254 45.2133 60.6579 45.3438 60.8518 45.5215C61.0417 45.6853 61.1995 45.8826 61.3173 46.1036C61.4635 46.4265 61.5748 46.764 61.6493 47.1103C61.7657 47.5736 61.8619 48.0538 61.9379 48.5355C62.0139 49.0173 62.1148 49.7013 62.2482 50.5938C62.2839 50.8131 62.3072 50.9814 62.318 51.0972H58.4392C58.1496 48.7687 57.9753 47.4716 57.9164 47.2061C57.7767 46.6394 57.5549 46.2966 57.2523 46.1808C57.0024 46.1124 56.7433 46.0832 56.4843 46.0943H55.9863C56.0454 46.4802 56.0454 46.8727 55.9863 47.2586L55.4448 51.0972H51.6545L53.3487 39.1119H57.136L56.6814 42.2001C56.6176 42.694 56.5138 43.182 56.3711 43.6593H56.7202C57.4287 43.6593 57.9459 43.4045 58.2717 42.8949C58.5975 42.3854 59.1095 41.1234 59.8077 39.1088H63.7345C62.8502 41.2963 62.333 42.547 62.183 42.861C61.7879 43.6361 61.3287 44.157 60.8053 44.4236C60.2977 44.6375 59.7605 44.7734 59.2119 44.8266Z" fill="#2F93B1"/>
<path fill-rule="evenodd" clip-rule="evenodd" d="M72.5285 47.9874L72.6682 50.7498C71.3133 51.1418 69.9069 51.3292 68.4961 51.3056C66.4606 51.3056 65.0761 50.8337 64.3427 49.8897C63.6094 48.9458 63.4056 47.3044 63.7315 44.9656C63.8573 43.9502 64.0828 42.9494 64.4048 41.9778C64.6351 41.28 65.0262 40.6455 65.5467 40.1249C66.0311 39.6577 66.6304 39.3254 67.2844 39.1613C68.1225 38.9687 68.9814 38.881 69.8413 38.9004C71.1778 38.8811 72.5106 39.0448 73.8023 39.3868L73.3632 42.1167C71.6648 42.0931 70.4236 42.0817 69.6396 42.0828C69.2963 42.0611 68.9533 42.1298 68.6451 42.282C68.4232 42.4147 68.237 42.705 68.0865 43.1497C67.885 43.834 67.7448 44.5346 67.6676 45.2435C67.4928 46.4243 67.4577 47.1999 67.5621 47.5705C67.6666 47.9411 68.0333 48.1264 68.6622 48.1264C70.2509 48.1264 71.5397 48.08 72.5285 47.9874Z" fill="#2F93B1"/>
<path fill-rule="evenodd" clip-rule="evenodd" d="M85.9832 39.1135L84.2905 51.0972H80.4862L81.8298 41.5794H78.9672L77.6236 51.0972H73.8193L75.512 39.1135H85.9832Z" fill="#2F93B1"/>
<path fill-rule="evenodd" clip-rule="evenodd" d="M96.2291 41.9252H92.0401C91.8137 41.9038 91.5865 41.9582 91.3946 42.0796C91.2476 42.2215 91.16 42.4135 91.1495 42.617L90.9943 43.7118H95.3386L95.0283 46.2132H90.6437L90.4513 47.6029C90.3815 48.0538 90.5972 48.2807 91.0967 48.2807H95.2858L95.216 50.9597C94.1817 51.0987 92.2164 51.1682 89.3203 51.1682C88.3428 51.1682 87.6157 50.8671 87.1388 50.2649C86.662 49.6627 86.4877 48.8752 86.616 47.9024L87.4817 41.6952C87.5986 40.8716 87.9244 40.2231 88.4592 39.7496C88.9939 39.2761 89.6978 39.0388 90.5708 39.0378C93.4566 39.0378 95.4813 39.1191 96.6449 39.2817L96.2291 41.9252Z" fill="#2F93B1"/>
<path fill-rule="evenodd" clip-rule="evenodd" d="M96.5596 51.0972L98.2523 39.1119C99.4159 38.9966 101.034 38.939 103.105 38.939C104.978 38.939 106.251 39.2401 106.927 39.8423C107.602 40.4445 107.835 41.55 107.625 43.159C107.418 44.6753 106.973 45.7047 106.291 46.2472C105.608 46.7897 104.465 47.0619 102.86 47.064C102.213 47.0588 101.567 47.0181 100.924 46.942L100.33 51.0941L96.5596 51.0972ZM101.273 44.4097H102.531C103.009 44.4097 103.332 44.3227 103.501 44.1487C103.669 43.9758 103.8 43.5527 103.894 42.881C103.963 42.3838 103.94 42.0441 103.824 41.865C103.707 41.6859 103.439 41.5964 103.02 41.5964H101.676L101.273 44.4097Z" fill="#2F93B1"/>
<path fill-rule="evenodd" clip-rule="evenodd" d="M118.689 41.9268H115.357L114.064 51.0972H110.277L111.569 41.9268H108.254L108.654 39.1135H119.091L118.689 41.9268Z" fill="#2F93B1"/>
<path fill-rule="evenodd" clip-rule="evenodd" d="M37.7731 27.1653C37.3751 26.612 36.8912 26.1252 36.3395 25.7231C35.1573 24.8275 32.6159 23.3668 29.6541 21.9107C27.0925 20.6332 24.4546 19.5132 21.7553 18.5569C21.138 18.339 20.4907 18.2166 19.8361 18.1941C19.075 18.1549 18.3192 18.3408 17.664 18.7283C17.0277 19.1448 16.5561 19.768 16.3297 20.4917C16.1369 21.0776 16.0359 21.6895 16.0303 22.306C15.9465 25.9532 15.9201 28.8761 15.9651 31.3899C16.0116 33.8775 16.1311 35.9743 16.3421 37.9986C16.3703 38.2601 16.4222 38.5185 16.4973 38.7707C16.6379 39.2482 16.8748 39.6922 17.1936 40.0755C17.5124 40.4589 17.9063 40.7736 18.3513 41.0004C19.2093 41.4478 20.1801 41.6356 21.144 41.5408C21.3698 41.519 21.5932 41.4766 21.8112 41.4142C25.5643 40.3225 30.1506 37.1772 33.4041 34.946L34.3474 34.299C35.6414 33.4173 36.6467 32.514 37.3356 31.6138C37.9562 30.8093 38.3037 30.0219 38.3705 29.273C38.4293 28.5221 38.2175 27.7749 37.7731 27.1653Z" fill="#44B0A1"/>
<path fill-rule="evenodd" clip-rule="evenodd" d="M25.3459 27.1282H22.834L21.8612 34.0365H19.0095L19.9823 27.1282H17.4844L17.7869 25.0081H25.6484L25.3381 27.1282H25.3459ZM25.2404 34.0365C26.222 34.1065 27.6985 34.1415 29.6699 34.1415C30.8439 34.1415 31.69 33.984 32.2082 33.669C32.7264 33.354 33.046 32.761 33.167 31.8902C33.3874 30.3378 32.8268 29.5051 31.4852 29.3918L31.4976 29.3131C32.112 29.2606 32.5547 29.084 32.8257 28.7834C33.0967 28.4829 33.2762 28.0093 33.3641 27.3629C33.4882 26.4302 33.3088 25.7874 32.8257 25.4343C32.3427 25.0812 31.478 24.9042 30.2316 24.9031C28.6108 24.9031 27.3696 24.9381 26.508 25.0081L25.2326 34.0365H25.2404ZM28.8089 28.5024L29.0462 26.8657H30.1509C30.3774 26.8657 30.5295 26.9166 30.604 27.0201C30.6784 27.1235 30.6939 27.3011 30.6505 27.5621C30.5884 27.9563 30.4964 28.2137 30.3743 28.3341C30.2518 28.4515 30.0237 28.5117 29.6901 28.5117L28.8089 28.5024ZM28.2969 32.1789L28.573 30.2164H29.6374C29.9709 30.2164 30.1804 30.272 30.2688 30.3862C30.3573 30.5005 30.3743 30.7398 30.3216 31.1058C30.2595 31.5505 30.1509 31.8408 29.9927 31.9751C29.8344 32.1094 29.5458 32.1789 29.1254 32.1789H28.2969Z" fill="white"/>
</g>
<defs>
<linearGradient id="paint0_linear_84_890" x1="3.27697" y1="38.6607" x2="69.7777" y2="32.8758" gradientUnits="userSpaceOnUse">
<stop stop-color="#2F93B1"/>
<stop offset="0.37" stop-color="#3297AF"/>
<stop offset="0.76" stop-color="#3CA4A7"/>
<stop offset="1" stop-color="#44B0A1"/>
</linearGradient>
<clipPath id="clip0_84_890">
<rect width="119.091" height="70" fill="white"/>
</clipPath>
</defs>
</svg>
