<svg width="332" height="230" viewBox="0 0 332 230" fill="none" xmlns="http://www.w3.org/2000/svg">
<g clip-path="url(#clip0_94_1316)">
<path fill-rule="evenodd" clip-rule="evenodd" d="M114.811 176.128C110.22 173.52 106.069 170.196 102.515 166.279C94.6363 157.913 81.278 139.545 67.6066 117.933C55.6426 99.2569 44.8282 79.8625 35.2241 59.8589C33.0335 55.2834 31.554 50.3981 30.8373 45.3733C29.9044 39.5415 30.709 33.5646 33.1499 28.1952C35.8297 22.9474 40.238 18.7976 45.6237 16.4528C49.9762 14.4818 54.6053 13.1962 59.3484 12.6411C87.368 8.97102 109.858 6.34375 129.255 4.60568C148.452 2.90133 164.701 2.08277 180.466 2.02967C182.503 2.03016 184.537 2.21594 186.541 2.58475C190.335 3.27235 193.951 4.72963 197.168 6.86765C200.385 9.00567 203.135 11.7796 205.251 15.0201C209.409 21.2595 211.661 28.583 211.73 36.0883C211.749 37.8461 211.608 39.6018 211.309 41.3333C206.015 71.1543 185.595 109.097 171.11 136.014L166.91 143.819C161.193 154.519 155.071 163.014 148.709 169.068C143.028 174.517 137.252 177.847 131.539 178.982C125.805 180.058 119.875 179.046 114.811 176.128Z" fill="#F0F0F0"/>
<path fill-rule="evenodd" clip-rule="evenodd" d="M178.124 190.505C178.239 186.216 179.037 181.969 180.487 177.923C183.476 169.075 191.544 152.475 201.818 134.411C210.639 118.693 220.415 103.525 231.09 88.9917C233.534 85.672 236.473 82.7438 239.802 80.3094C243.628 77.4115 248.222 75.7042 253.006 75.4026C257.793 75.3188 262.454 76.8942 266.194 79.8605C269.271 82.2286 271.962 85.0571 274.173 88.2466C287.514 106.938 297.994 122.063 306.654 135.31C315.213 148.426 322.01 159.766 328.073 171.052C328.852 172.513 329.495 174.042 329.997 175.621C330.954 178.605 331.291 181.755 330.987 184.879C330.683 188.003 329.745 191.036 328.23 193.792C325.344 199.158 320.953 203.572 315.597 206.49C314.343 207.176 313.03 207.746 311.674 208.193C288.264 215.793 253.249 215.651 228.409 215.55L221.207 215.521C211.348 215.51 202.915 214.366 196.142 212.118C190.064 210.126 185.467 207.256 182.47 203.593C179.507 199.892 177.966 195.252 178.124 190.505Z" fill="#F0F0F0"/>
<path fill-rule="evenodd" clip-rule="evenodd" d="M90.0655 225.088C87.6047 226.274 84.9688 227.062 82.2565 227.422C76.3786 228.312 64.6322 228.59 51.4138 228.047C39.9468 227.642 28.5125 226.536 17.1751 224.736C14.5838 224.321 12.0698 223.513 9.72091 222.34C6.96508 221.02 4.65881 218.919 3.09257 216.301C1.64831 213.616 1.17989 210.519 1.76711 207.538C2.20932 205.106 3.02455 202.758 4.18416 200.577C10.868 187.575 16.3683 177.233 21.337 168.468C26.2609 159.799 30.6941 152.644 35.3109 145.921C35.9106 145.054 36.588 144.244 37.3347 143.499C38.7438 142.087 40.4279 140.978 42.2842 140.238C44.1406 139.499 46.1302 139.145 48.1316 139.198C52.0099 139.265 55.7886 140.462 59.0023 142.641C59.7559 143.15 60.4613 143.727 61.1099 144.364C72.2402 155.392 82.3753 175.246 89.5654 189.33L91.65 193.413C94.5205 198.995 96.3331 204.1 97.0369 208.588C97.6834 212.608 97.4006 216.046 96.2026 218.811C94.9729 221.567 92.7973 223.792 90.0655 225.088Z" fill="#F0F0F0"/>
</g>
<defs>
<clipPath id="clip0_94_1316">
<rect width="332" height="230" fill="white"/>
</clipPath>
</defs>
</svg>
