<svg width="404" height="255" viewBox="0 0 404 255" fill="none" xmlns="http://www.w3.org/2000/svg">
<path fill-rule="evenodd" clip-rule="evenodd" d="M165.052 242.001C170.84 237.46 175.872 232.022 179.961 225.891C189.088 212.737 203.699 184.67 218.072 152.068C230.699 123.865 241.594 94.9089 250.695 65.3636C252.769 58.607 253.798 51.5702 253.748 44.4988C253.829 36.2709 251.486 28.2018 247.014 21.3079C242.237 14.6308 235.306 9.82351 227.401 7.70517C220.997 5.88847 214.354 5.07323 207.704 5.28806C168.339 6.01841 136.81 7.04353 109.724 8.65516C82.9219 10.2718 60.3651 12.4999 38.6318 15.683C35.825 16.1044 33.0619 16.7803 30.3765 17.7025C25.2907 19.4335 20.6096 22.1882 16.6188 25.7985C12.6281 29.4087 9.41147 33.7988 7.1652 38.7008C2.72532 48.1563 1.13477 58.712 2.58949 69.0675C2.9262 71.4933 3.48331 73.8832 4.25381 76.2071C17.7074 116.202 53.6786 164.264 79.1957 198.359L86.5948 208.245C96.6818 221.808 106.873 232.248 116.888 239.275C125.841 245.609 134.488 249.005 142.593 249.389C150.716 249.687 158.678 247.068 165.052 242.001Z" fill="#F0F0F0"/>
<path fill-rule="evenodd" clip-rule="evenodd" d="M263.376 151.109C267.368 152.351 271.535 152.95 275.722 152.884C284.821 152.909 302.665 150.687 322.553 146.891C339.821 143.697 356.881 139.45 373.639 134.173C377.468 132.963 381.092 131.174 384.384 128.868C388.259 126.251 391.277 122.551 393.059 118.235C394.641 113.846 394.653 109.053 393.093 104.671C391.877 101.09 390.114 97.7187 387.868 94.6773C374.824 76.4992 364.17 62.081 354.676 49.931C345.272 37.9153 336.951 28.0827 328.449 18.9435C327.346 17.7665 326.138 16.6921 324.84 15.7335C322.39 13.913 319.59 12.6122 316.614 11.9104C313.637 11.2086 310.546 11.1205 307.528 11.6516C301.672 12.6258 296.221 15.2879 291.847 19.3099C290.82 20.2502 289.882 21.282 289.044 22.3923C274.676 41.5912 263.801 73.9265 256.086 96.8648L253.85 103.516C250.76 112.611 249.165 120.747 249.109 127.699C249.035 133.931 250.237 139.072 252.673 142.987C255.155 146.883 258.949 149.762 263.376 151.109Z" fill="#F0F0F0"/>
<path fill-rule="evenodd" clip-rule="evenodd" d="M248.476 191.906C249.122 193.97 250.094 195.92 251.354 197.682C254.02 201.56 260.217 208.499 267.685 215.844C274.125 222.251 280.953 228.26 288.129 233.837C289.771 235.11 291.599 236.126 293.548 236.848C295.802 237.726 298.264 237.922 300.625 237.41C302.958 236.791 305.001 235.386 306.406 233.433C307.572 231.861 308.488 230.12 309.121 228.269C313.017 217.37 316.016 208.594 318.392 200.979C320.737 193.441 322.472 187.008 323.859 180.701C324.035 179.885 324.137 179.055 324.163 178.221C324.216 176.642 323.946 175.069 323.368 173.596C322.791 172.123 321.919 170.781 320.805 169.654C318.667 167.449 315.93 165.913 312.932 165.235C312.23 165.075 311.515 164.98 310.795 164.95C298.399 164.486 281.441 169.375 269.41 172.842L265.922 173.848C261.144 175.21 257.212 176.925 254.238 178.947C251.565 180.75 249.731 182.774 248.782 184.962C247.855 187.165 247.746 189.626 248.476 191.906Z" fill="#F0F0F0"/>
</svg>
