<svg width="448" height="438" viewBox="0 0 448 438" fill="none" xmlns="http://www.w3.org/2000/svg">
<g clip-path="url(#clip0_95_1330)">
<path class="rotate" opacity="0.39" fill-rule="evenodd" clip-rule="evenodd" d="M291.319 417.182C301.38 409.407 310.147 400.074 317.292 389.531C333.235 366.914 358.849 318.592 384.109 262.432C406.294 213.85 425.496 163.945 441.605 112.999C445.275 101.348 447.145 89.1997 447.149 76.9776C447.394 62.7583 443.448 48.7825 435.808 36.8103C427.638 25.2088 415.722 16.8114 402.087 13.0487C391.042 9.82662 379.57 8.33229 368.074 8.61816C300.031 9.37476 245.525 10.7414 198.692 13.1789C152.349 15.6286 113.336 19.1897 75.7332 24.4118C70.8767 25.1041 66.0926 26.2368 61.4395 27.796C52.6275 30.7225 44.5018 35.4234 37.5582 41.6117C30.6146 47.8001 24.9989 55.3461 21.0537 63.7893C13.2588 80.0744 10.3742 98.2973 12.7554 116.213C13.3062 120.41 14.2383 124.548 15.5401 128.574C38.2782 197.87 99.8299 281.398 143.493 340.653L156.154 357.833C173.413 381.403 190.892 399.578 208.112 411.852C223.503 422.914 238.404 428.894 252.407 429.662C266.443 430.281 280.237 425.857 291.319 417.182Z" fill="white"/>
<path opacity="0.2" fill-rule="evenodd" clip-rule="evenodd" d="M17.2768 408.444C20.7641 409.247 24.3597 409.49 27.9291 409.164C35.6963 408.599 50.7837 405.554 67.5141 401.033C82.0467 397.195 96.3347 392.471 110.298 386.889C113.488 385.609 116.466 383.849 119.127 381.669C122.266 379.186 124.604 375.833 125.847 372.035C126.915 368.187 126.617 364.095 125.003 360.456C123.734 357.477 122.013 354.713 119.9 352.262C107.596 337.586 97.5743 325.966 88.6887 316.207C79.8879 306.557 72.1526 298.701 64.3076 291.448C63.2905 290.514 62.1904 289.675 61.0209 288.94C58.8119 287.544 56.339 286.614 53.7533 286.207C51.1676 285.799 48.5232 285.923 45.9816 286.571C41.0463 287.78 36.5652 290.403 33.0904 294.117C32.2751 294.986 31.5408 295.927 30.8967 296.929C19.87 314.24 12.67 342.539 7.56207 362.615L6.08129 368.435C4.03004 376.397 3.19232 383.444 3.59272 389.382C3.93085 394.705 5.28756 399.016 7.61858 402.201C9.98774 405.366 13.4116 407.579 17.2768 408.444Z" fill="white"/>
<path opacity="0.68" fill-rule="evenodd" clip-rule="evenodd" d="M325.73 383.36C333.657 374.461 340.09 364.432 344.788 353.648C355.439 330.391 370.33 282.368 383.438 227.444C395.089 179.866 403.716 131.7 409.27 83.2172C410.527 72.1326 410.016 60.9604 407.754 50.0906C405.346 37.3972 399.081 25.7469 389.747 16.607C379.99 7.90081 367.338 2.78318 353.945 2.12589C343.064 1.4386 332.105 2.37198 321.454 4.89321C258.24 18.9842 207.743 30.9483 164.588 42.3514C121.893 53.6687 86.2276 64.5291 52.184 76.5884C47.7905 78.1618 43.546 80.1125 39.5026 82.4167C31.8402 86.7569 25.1458 92.5397 19.8279 99.4122C14.51 106.285 10.6802 114.103 8.57207 122.389C4.33329 138.408 5.02582 155.183 10.5643 170.645C11.8552 174.269 13.4902 177.765 15.4488 181.089C49.4668 238.229 122.263 300.371 173.903 344.455L188.876 357.236C209.316 374.793 228.959 387.508 247.268 395.028C263.65 401.83 278.633 404.209 291.814 402.131C304.997 399.914 317.02 393.259 325.73 383.36Z" fill="white"/>
</g>
<defs>
<clipPath id="clip0_95_1330">
<rect width="448" height="438" fill="white"/>
</clipPath>
</defs>
</svg>
