<svg width="73" height="55" viewBox="0 0 73 55" fill="none" xmlns="http://www.w3.org/2000/svg">
<path d="M47.1945 55C46.0977 54.3747 45.0297 53.6072 43.9905 52.6977C42.9514 51.845 41.8256 50.6227 40.6133 49.031C43.5575 45.7907 45.9822 42.2093 47.8873 38.2868C49.7924 34.4212 51.2645 29.8165 52.3037 24.4729C49.4172 24.0749 47.0791 22.8811 45.2894 20.8915C43.4998 18.9587 42.605 16.5426 42.605 13.6434C42.605 11.2558 43.038 9.20931 43.9039 7.50388C44.7699 5.79846 45.9245 4.37726 47.3677 3.24032C48.7533 2.16021 50.3408 1.33592 52.1305 0.767447C53.8624 0.25582 55.6232 6.11026e-06 57.4128 6.26672e-06C60.3571 6.52411e-06 62.8395 0.369517 64.86 1.10854C66.8229 1.84755 68.4104 2.89923 69.6228 4.26357C70.8351 5.62791 71.7011 7.27649 72.2206 9.20931C72.7402 11.1421 73 13.3023 73 15.6899C73 23.2507 70.7485 30.3282 66.2456 36.9225C61.6849 43.5736 55.3345 49.5995 47.1945 55ZM6.49466 55C5.39778 54.3747 4.32977 53.6072 3.29063 52.6977C2.25148 51.845 1.1546 50.6227 -7.10757e-06 49.031C2.94425 45.7907 5.36892 42.2093 7.27402 38.2868C9.17912 34.4212 10.6224 29.8165 11.6038 24.4729C8.77501 24.0749 6.46579 22.8811 4.67616 20.8915C2.82878 18.9587 1.9051 16.5426 1.9051 13.6434C1.9051 11.2558 2.33808 9.2093 3.20403 7.50388C4.06999 5.79845 5.19573 4.37726 6.58126 3.24031C7.96679 2.16021 9.55437 1.33592 11.344 0.767443C13.1336 0.255816 14.9522 2.55469e-06 16.7995 2.71619e-06C19.7438 2.97359e-06 22.2262 0.369514 24.2467 1.10853C26.2096 1.9044 27.7972 2.9845 29.0095 4.34884C30.2218 5.77003 31.0878 7.44703 31.6074 9.37985C32.0692 11.3695 32.3001 13.5581 32.3001 15.9457C32.3001 19.6408 31.7228 23.2506 30.5682 26.7752C29.3559 30.3566 27.6528 33.7959 25.4591 37.093C23.2076 40.3902 20.4943 43.5168 17.3191 46.4729C14.0862 49.4858 10.4781 52.3282 6.49466 55Z" fill="#44B0A1"/>
</svg>
