<svg width="0" height="0" class="hidden">
  <symbol fill="none" xmlns="http://www.w3.org/2000/svg" viewBox="0 0 25 29" id="polygon">
    <path d="M23.3981 16.7729C25.358 15.6107 25.358 12.774 23.3981 11.6119L4.5301 0.424042C2.53031 -0.761747 1.42118e-06 0.679579 1.31955e-06 3.00451L3.41479e-07 25.3803C2.39853e-07 27.7052 2.5303 29.1465 4.5301 27.9607L23.3981 16.7729Z" fill="currentColor" fill-opacity="0.7"></path>
  </symbol>
  <symbol fill="none" xmlns="http://www.w3.org/2000/svg" viewBox="0 0 22 22" id="decor-polygon">
    <path d="M20.0145 2.85374L20.0185 2.86985C20.1226 3.36456 20.1512 3.87237 20.1022 4.37507L20.1013 4.37531C19.8442 6.97862 19.4286 9.56326 18.8565 12.1147L18.8548 12.1201C18.2044 15.1004 17.4701 17.6359 16.9663 18.8073L16.9634 18.816L16.9596 18.825C16.7602 19.313 16.4845 19.7655 16.1438 20.1659L16.14 20.1709C15.8439 20.5232 15.4332 20.7572 14.9816 20.8329C14.5365 20.9 13.9493 20.8213 13.206 20.4935L13.2027 20.4923C12.3663 20.1273 11.4176 19.4923 10.3875 18.5687L10.3861 18.567L9.59335 17.8614C6.81812 15.3881 3.11278 12.0695 1.39365 9.10086C1.32012 8.97211 1.25774 8.83691 1.20849 8.69693L1.20826 8.69598C0.973293 8.03164 0.936581 7.31319 1.10281 6.62984L1.10473 6.62131L1.17224 6.38538C1.25172 6.15382 1.36621 5.93558 1.51151 5.73839C1.70516 5.47561 1.95011 5.2551 2.23092 5.09115L2.23282 5.09069L2.47575 4.96235L2.72927 4.85654C4.03623 4.38575 5.39355 3.94992 6.92118 3.51343L8.5118 3.07469C10.7462 2.48077 13.3688 1.85874 16.665 1.12533L16.6795 1.12276C17.1353 1.01479 17.6053 0.977737 18.0728 1.01335L18.087 1.01387C18.5483 1.04225 18.9877 1.22778 19.3324 1.54043C19.6818 1.9019 19.919 2.35841 20.0145 2.85374Z" stroke="currentColor" stroke-width="2"></path>
  </symbol>
  <symbol fill="none" xmlns="http://www.w3.org/2000/svg" viewBox="0 0 73 55" id="quote">
    <path d="M47.1945 55C46.0977 54.3747 45.0297 53.6072 43.9905 52.6977C42.9514 51.845 41.8256 50.6227 40.6133 49.031C43.5575 45.7907 45.9822 42.2093 47.8873 38.2868C49.7924 34.4212 51.2645 29.8165 52.3037 24.4729C49.4172 24.0749 47.0791 22.8811 45.2894 20.8915C43.4998 18.9587 42.605 16.5426 42.605 13.6434C42.605 11.2558 43.038 9.20931 43.9039 7.50388C44.7699 5.79845 45.9245 4.37727 47.3677 3.24031C48.7533 2.16021 50.3408 1.33592 52.1305 0.767447C53.8624 0.25582 55.6232 5.8942e-06 57.4128 6.05065e-06C60.3571 6.30805e-06 62.8395 0.369515 64.86 1.10853C66.8229 1.84755 68.4104 2.89923 69.6228 4.26357C70.8351 5.62791 71.7011 7.27649 72.2206 9.20931C72.7402 11.1421 73 13.3023 73 15.6899C73 23.2507 70.7485 30.3282 66.2456 36.9225C61.6849 43.5736 55.3345 49.5995 47.1945 55ZM6.49466 55C5.39778 54.3747 4.32977 53.6072 3.29062 52.6977C2.25148 51.845 1.1546 50.6227 -4.3136e-06 49.031C2.94424 45.7907 5.36892 42.2093 7.27402 38.2868C9.17912 34.4212 10.6224 29.8165 11.6038 24.4729C8.77501 24.0749 6.4658 22.8811 4.67616 20.8915C2.82878 18.9587 1.9051 16.5426 1.9051 13.6434C1.9051 11.2558 2.33808 9.2093 3.20403 7.50388C4.06999 5.79845 5.19573 4.37726 6.58126 3.24031C7.96679 2.16021 9.55437 1.33592 11.344 0.767444C13.1337 0.255816 14.9522 2.33862e-06 16.7995 2.50013e-06C19.7438 2.75752e-06 22.2262 0.369512 24.2467 1.10853C26.2096 1.9044 27.7972 2.9845 29.0095 4.34884C30.2218 5.77003 31.0878 7.44703 31.6074 9.37985C32.0692 11.3695 32.3001 13.5581 32.3001 15.9457C32.3001 19.6408 31.7228 23.2506 30.5682 26.7752C29.3559 30.3566 27.6528 33.7959 25.4591 37.093C23.2076 40.3902 20.4943 43.5168 17.3191 46.4729C14.0862 49.4858 10.4781 52.3282 6.49466 55Z" fill="currentColor"></path>
  </symbol>
  <symbol fill="none" xmlns="http://www.w3.org/2000/svg" viewBox="0 0 11 13" id="ar-left">
    <path d="M0.499999 7.06378C-0.166668 6.67888 -0.166667 5.71663 0.5 5.33173L9.5 0.135577C10.1667 -0.249324 11 0.231802 11 1.0016L11 11.3939C11 12.1637 10.1667 12.6448 9.5 12.2599L0.499999 7.06378Z" fill="currentColor"></path>
  </symbol>
  <symbol fill="none" xmlns="http://www.w3.org/2000/svg" viewBox="0 0 11 13" id="ar-right">
    <path d="M10.5 7.06378C11.1667 6.67888 11.1667 5.71663 10.5 5.33173L1.5 0.135577C0.833333 -0.249324 6.10471e-07 0.231802 5.76822e-07 1.0016L1.2256e-07 11.3939C8.8911e-08 12.1637 0.833333 12.6448 1.5 12.2599L10.5 7.06378Z" fill="currentColor"></path>
  </symbol>
  <symbol fill="none" xmlns="http://www.w3.org/2000/svg" viewBox="0 0 20 19" id="tel-icon">
    <path fill-rule="evenodd" clip-rule="evenodd" d="M13.7286 19C14.2766 19 14.8119 18.8616 15.1757 18.6487C15.5654 18.4206 16.5452 17.4188 16.9356 17.0465C17.0749 16.9136 17.2383 16.7685 17.3349 16.6071C17.796 15.8367 17.4823 15.3011 16.8758 14.7227C16.4546 14.321 14.9208 12.802 14.5244 12.5229C13.9641 12.1283 13.2192 12.2228 12.7432 12.6837L11.0946 14.2326C10.9953 14.3278 10.8517 14.512 10.6949 14.512C10.4838 14.512 9.50228 13.9359 9.24732 13.7739C8.72731 13.4432 8.24254 13.065 7.7748 12.6722L6.47029 11.3875C6.41407 11.3206 6.365 11.2787 6.30302 11.2053C5.65076 10.4327 5.24358 9.99616 4.79417 9.04476C4.58867 8.60968 4.70436 8.66338 5.31414 8.08183L6.60431 6.85181C7.12436 6.36162 7.18024 5.71121 6.7825 5.14372C6.55988 4.82607 4.83912 3.24331 4.47806 2.89897C4.06493 2.50497 3.76347 2.25537 3.12244 2.25537C2.84603 2.25537 2.52276 2.43139 2.36342 2.55665C1.94752 2.88363 1.14664 3.69543 0.739626 4.0836C0.341544 4.46325 0.0980308 4.89068 0.0232171 5.45073C-0.00842484 5.68769 -0.00612755 6.18424 0.020443 6.42115C0.0537321 6.71812 0.115109 7.01894 0.183898 7.29045C0.411243 8.18774 0.805553 9.04423 1.23528 9.8645L1.52083 10.3667C2.07149 11.2752 2.67546 12.1384 3.36877 12.9556C3.7284 13.3796 4.10954 13.7814 4.49908 14.1786C4.50242 14.1821 4.50723 14.187 4.51065 14.1904L4.53471 14.2131C4.5413 14.2193 4.55595 14.2309 4.57116 14.2466L5.03053 14.697C5.09213 14.7561 5.12087 14.7678 5.1832 14.8248L5.743 15.3161C5.84109 15.3948 5.91777 15.4715 6.02301 15.5503C6.32889 15.7796 6.60808 16.0242 6.93013 16.2343C7.50389 16.6087 7.87081 16.8807 8.53087 17.2593C8.5958 17.2965 8.63334 17.3121 8.6987 17.3498C8.76853 17.3902 8.81391 17.4189 8.87924 17.451L9.9307 17.9746C10.0537 18.0318 10.1665 18.092 10.2966 18.1496C10.4264 18.2071 10.5348 18.2425 10.663 18.3014C10.7892 18.3594 10.9265 18.4053 11.0529 18.4535C11.4326 18.5982 11.865 18.718 12.271 18.8182C12.4116 18.853 12.5915 18.8802 12.7321 18.9024C13.0515 18.9531 13.3658 19 13.7286 19Z" fill="currentColor"></path>
    <path fill-rule="evenodd" clip-rule="evenodd" d="M9.09437 0.91126C9.09437 1.16905 9.09377 1.30418 9.25761 1.53013C9.34695 1.65336 9.43463 1.74088 9.5798 1.81524C9.72023 1.88713 9.85642 1.92636 10.0505 1.93587C10.5256 1.9591 11.2517 2.0376 11.6836 2.13256C11.854 2.17001 12.0091 2.19163 12.167 2.24115C12.3339 2.29349 12.48 2.32354 12.645 2.37757C13.5174 2.66317 13.9587 2.90529 14.6507 3.35803L15.5656 4.10303L16.2185 4.80168L16.7223 5.4831C17.2275 6.30425 17.5959 6.95086 17.796 7.94475C17.8246 8.0872 17.8625 8.28013 17.8841 8.43027C17.9581 8.94534 17.9411 9.06225 17.9786 9.50201C18.0222 10.0122 18.3613 10.3885 18.9124 10.3885C19.1779 10.3885 19.3473 10.3768 19.5865 10.2341C19.7215 10.1537 19.8218 10.0326 19.9 9.89521C20.0854 9.56947 19.9701 8.60224 19.8952 8.17534C19.8301 7.804 19.7723 7.46196 19.6633 7.09794C19.5244 6.63375 19.4857 6.53702 19.3217 6.12517C19.2539 5.9549 19.1987 5.82038 19.1195 5.65739C18.9693 5.34838 18.8186 5.08419 18.6508 4.80578C18.5667 4.66614 18.4923 4.54708 18.3963 4.41067C18.273 4.23547 18.1135 3.99096 17.9752 3.83267C17.8223 3.65769 17.7292 3.51284 17.5216 3.28565C16.7405 2.43081 17.0387 2.7444 16.1359 2.03281C15.8822 1.83285 15.6232 1.6682 15.3437 1.48979C14.8079 1.1478 14.1285 0.847764 13.5342 0.618379C12.525 0.22889 11.1421 0 10.05 0C9.4778 0 9.09437 0.463402 9.09437 0.91126Z" fill="currentColor"></path>
    <path fill-rule="evenodd" clip-rule="evenodd" d="M8.95107 4.48801C8.95107 4.97663 9.14625 5.28278 9.5644 5.45222C9.851 5.56838 10.5991 5.45392 11.5279 5.7895C11.8236 5.89632 12.1525 6.06303 12.4112 6.24567C12.6412 6.40813 12.7204 6.45356 12.9463 6.66938C13.4741 7.17359 13.9264 7.83789 14.0811 8.54874C14.1261 8.75572 14.1795 8.94431 14.203 9.1615C14.2398 9.50217 14.2016 10.0024 14.5583 10.3035C15.0438 10.7131 16.1229 10.6071 16.2413 9.68658C16.2723 9.4452 16.2315 9.14013 16.2138 8.88412C16.1871 8.50075 16.0166 7.8319 15.8682 7.48226C15.5128 6.64495 15.1973 6.15538 14.5828 5.49587C14.4907 5.39708 14.5054 5.3874 14.3667 5.26913L14.2371 5.16488C13.951 4.91941 13.8015 4.79883 13.4754 4.59276L12.9087 4.26755C11.9886 3.82912 11.0862 3.57679 10.002 3.57679C9.57515 3.57679 9.215 3.77893 9.05384 4.10778C9.00738 4.20261 8.95107 4.35998 8.95107 4.48801Z" fill="currentColor"></path>
  </symbol>
  <symbol fill="none" xmlns="http://www.w3.org/2000/svg" viewBox="0 0 21 16" id="mail">
    <path fill-rule="evenodd" clip-rule="evenodd" d="M0 1.91565C0 2.7018 0.252085 3.12975 0.675906 3.68603C0.71501 3.73736 0.750949 3.78049 0.793733 3.83442L1.05235 4.13245C1.20811 4.33497 1.595 4.66961 1.7972 4.81519C1.91365 4.89905 2.01471 4.96515 2.12501 5.04374L4.91648 6.99341C5.5743 7.45051 6.43287 8.07694 7.06599 8.49652C7.67444 8.89972 9.10765 10.1116 9.94925 10.1116C10.5999 10.1116 10.8955 9.95289 11.4269 9.63117C11.55 9.55662 11.6702 9.48502 11.7848 9.40861C12.3233 9.0498 12.9034 8.59187 13.4411 8.23466C14.3117 7.65632 15.2423 6.95409 16.1218 6.36776L18.1309 4.96609C19.0739 4.33935 20.14 3.19754 20.14 1.77013C20.14 0.827539 19.268 0 18.4496 0H1.69041C1.43273 0 1.14245 0.0873536 0.965869 0.169638C0.412668 0.427402 0 1.19926 0 1.91565Z" fill="currentColor"></path>
    <path fill-rule="evenodd" clip-rule="evenodd" d="M0.621867 15.1977C0.795942 15.4557 1.38836 15.6644 1.76287 15.6644H18.3289C18.5945 15.6644 18.8172 15.6093 19.0157 15.5297C19.1576 15.4728 19.4436 15.3066 19.5122 15.2037L13.8191 9.47508C13.7195 9.50656 12.6344 10.3206 12.4369 10.4514L11.7852 10.8155C11.633 10.8845 11.4813 10.9642 11.3226 11.0298C9.87379 11.6291 8.76827 11.1601 7.51504 10.325C7.37316 10.2304 7.25842 10.139 7.11908 10.0436C6.99358 9.95776 6.40832 9.50292 6.32697 9.48113L0.621867 15.1977Z" fill="currentColor"></path>
    <path fill-rule="evenodd" clip-rule="evenodd" d="M0.217348 13.6033C0.337029 13.5713 1.38008 12.4722 1.49118 12.3606C1.77566 12.0749 5.17601 8.69219 5.26443 8.55968C5.22596 8.50695 5.17322 8.48232 5.11455 8.44345L4.47204 7.99743C4.40921 7.95459 4.38094 7.92812 4.3181 7.88528C4.26017 7.84578 4.21605 7.81866 4.15812 7.77916C4.09172 7.73391 4.0574 7.70298 3.98961 7.65739L1.40544 5.88754C1.29514 5.81405 1.2003 5.74721 1.09331 5.6675C0.978365 5.58189 0.897931 5.50505 0.786635 5.41773C0.671488 5.32736 0.614585 5.24863 0.510277 5.16179C0.429957 5.09495 0.448126 5.10088 0.380555 5.02532C0.329785 4.96853 0.296441 4.91938 0.217376 4.89819L0.217348 13.6033Z" fill="currentColor"></path>
    <path fill-rule="evenodd" clip-rule="evenodd" d="M14.8756 8.55968L19.8925 13.6094L19.8985 4.89819C19.7727 4.98279 19.3988 5.4449 18.7346 5.88754C18.2948 6.18065 17.8795 6.47608 17.4402 6.77013L14.8756 8.55968Z" fill="currentColor"></path>
  </symbol>
</svg>